<svg xmlns="http://www.w3.org/2000/svg" version="1.1" xmlns:xlink="http://www.w3.org/1999/xlink" xmlns:svgjs="http://svgjs.com/svgjs" width="512" height="512" x="0" y="0" viewBox="0 0 32 32" style="enable-background:new 0 0 512 512" xml:space="preserve" class=""><g><path xmlns="http://www.w3.org/2000/svg" d="m16.71 15.29a1 1 0 0 0 -1.42 0l-10 10a1 1 0 0 0 1.42 1.42l9.29-9.3 9.29 9.3a1 1 0 0 0 1.42 0 1 1 0 0 0 0-1.42z" fill="#fff" data-original="#fff"></path><path xmlns="http://www.w3.org/2000/svg" d="m6.71 16.71 9.29-9.3 9.29 9.3a1 1 0 0 0 1.42 0 1 1 0 0 0 0-1.42l-10-10a1 1 0 0 0 -1.42 0l-10 10a1 1 0 0 0 1.42 1.42z" fill="#fff" data-original="#fff"></path></g></svg>